<svg xmlns="http://www.w3.org/2000/svg" xmlns:xlink="http://www.w3.org/1999/xlink" width="2000" zoomAndPan="magnify" viewBox="0 0 1500 1499.999933" height="2000" preserveAspectRatio="xMidYMid meet" version="1.0"><defs><clipPath id="dd3be7ea1a"><path d="M 434 780 L 1173 780 L 1173 1029 L 434 1029 Z M 434 780 " clip-rule="nonzero"/></clipPath><clipPath id="f40a9d6159"><path d="M 411.003906 843.019531 L 1149.183594 706.222656 L 1196.742188 962.855469 L 458.5625 1099.652344 Z M 411.003906 843.019531 " clip-rule="nonzero"/></clipPath><clipPath id="a6a3fe8f04"><path d="M 411.003906 843.019531 L 1149.183594 706.222656 L 1196.742188 962.855469 L 458.5625 1099.652344 Z M 411.003906 843.019531 " clip-rule="nonzero"/></clipPath><clipPath id="875ea9fdd8"><path d="M 411.003906 843.019531 L 1149.183594 706.222656 L 1196.742188 962.855469 L 458.5625 1099.652344 Z M 411.003906 843.019531 " clip-rule="nonzero"/></clipPath><clipPath id="16f9d71f45"><path d="M 946.074219 13.671875 L 1259 13.671875 L 1259 408 L 946.074219 408 Z M 946.074219 13.671875 " clip-rule="nonzero"/></clipPath><clipPath id="0b8213cc71"><path d="M 0.0742188 0.671875 L 310 0.671875 L 310 394 L 0.0742188 394 Z M 0.0742188 0.671875 " clip-rule="nonzero"/></clipPath><clipPath id="38ec6a5ac0"><rect x="0" width="313" y="0" height="395"/></clipPath><clipPath id="8ecb4251e6"><path d="M 117 187 L 494 187 L 494 579 L 117 579 Z M 117 187 " clip-rule="nonzero"/></clipPath><clipPath id="621e93453b"><path d="M 66.988281 219.339844 L 370.542969 108.226562 L 518.78125 513.199219 L 215.226562 624.3125 Z M 66.988281 219.339844 " clip-rule="nonzero"/></clipPath><clipPath id="66714850ad"><path d="M 66.988281 219.339844 L 370.542969 108.226562 L 518.78125 513.199219 L 215.226562 624.3125 Z M 66.988281 219.339844 " clip-rule="nonzero"/></clipPath><clipPath id="ad17df9c76"><path d="M 228 298 L 414 298 L 414 491 L 228 491 Z M 228 298 " clip-rule="nonzero"/></clipPath><clipPath id="e6d57a6ea1"><path d="M 66.988281 219.339844 L 370.542969 108.226562 L 518.78125 513.199219 L 215.226562 624.3125 Z M 66.988281 219.339844 " clip-rule="nonzero"/></clipPath><clipPath id="1a356c220b"><path d="M 66.988281 219.339844 L 370.542969 108.226562 L 518.78125 513.199219 L 215.226562 624.3125 Z M 66.988281 219.339844 " clip-rule="nonzero"/></clipPath><clipPath id="ae86d30279"><path d="M 558 450 L 742 450 L 742 613 L 558 613 Z M 558 450 " clip-rule="nonzero"/></clipPath><clipPath id="1d4fb4ff78"><path d="M 694.496094 450.207031 L 741.457031 544.691406 L 605.207031 612.414062 L 558.246094 517.929688 Z M 694.496094 450.207031 " clip-rule="nonzero"/></clipPath><clipPath id="3d268acd28"><path d="M 0.238281 0 L 183.601562 0 L 183.601562 162.480469 L 0.238281 162.480469 Z M 0.238281 0 " clip-rule="nonzero"/></clipPath><clipPath id="d2861715d2"><path d="M 136.496094 0.207031 L 183.457031 94.691406 L 47.207031 162.414062 L 0.246094 67.929688 Z M 136.496094 0.207031 " clip-rule="nonzero"/></clipPath><clipPath id="194fdcc350"><rect x="0" width="184" y="0" height="163"/></clipPath><clipPath id="b10602d8cb"><path d="M 267 412 L 425 412 L 425 510 L 267 510 Z M 267 412 " clip-rule="nonzero"/></clipPath><clipPath id="a0f74f69db"><path d="M 267.132812 469.851562 L 408.992188 412.675781 L 424.777344 451.839844 L 282.917969 509.015625 Z M 267.132812 469.851562 " clip-rule="nonzero"/></clipPath><clipPath id="f98395807f"><path d="M 0.121094 0.558594 L 157.800781 0.558594 L 157.800781 97.039062 L 0.121094 97.039062 Z M 0.121094 0.558594 " clip-rule="nonzero"/></clipPath><clipPath id="bd247c2539"><path d="M 0.132812 57.851562 L 141.992188 0.675781 L 157.777344 39.839844 L 15.917969 97.015625 Z M 0.132812 57.851562 " clip-rule="nonzero"/></clipPath><clipPath id="86a2b03a49"><rect x="0" width="158" y="0" height="98"/></clipPath><clipPath id="678a663a32"><path d="M 1014.09375 324.738281 L 1166.265625 324.738281 L 1166.265625 354.328125 L 1014.09375 354.328125 Z M 1014.09375 324.738281 " clip-rule="nonzero"/></clipPath><clipPath id="3513b48fe4"><path d="M 0.09375 0.738281 L 152.265625 0.738281 L 152.265625 30.328125 L 0.09375 30.328125 Z M 0.09375 0.738281 " clip-rule="nonzero"/></clipPath><clipPath id="bedc82a715"><rect x="0" width="153" y="0" height="31"/></clipPath></defs><path fill="#ffaff3" d="M 606.238281 123.738281 C 626.253906 67.035156 700.660156 53.917969 738.867188 100.359375 L 939.121094 343.765625 C 963.894531 373.886719 1000.566406 391.730469 1039.574219 392.683594 L 1354.992188 400.355469 C 1415.214844 401.820312 1450.578125 468.390625 1418.179688 518.996094 L 1248.167969 784.496094 C 1237.773438 800.722656 1230.996094 819.003906 1228.308594 838.089844 C 1225.613281 857.167969 1227.074219 876.613281 1232.585938 895.078125 L 1322.613281 1197.023438 C 1339.773438 1254.554688 1287.367188 1308.882812 1229.042969 1293.730469 L 923.714844 1214.414062 C 905.050781 1209.5625 885.5625 1208.785156 866.570312 1212.136719 C 847.585938 1215.476562 829.539062 1222.871094 813.660156 1233.816406 L 553.882812 1412.753906 C 504.257812 1446.929688 436.429688 1413.800781 432.863281 1353.871094 L 414.179688 1039.351562 C 411.867188 1000.425781 392.707031 964.445312 361.707031 940.773438 L 111.113281 749.414062 C 63.351562 712.941406 73.816406 638.289062 129.902344 616.324219 L 423.675781 501.253906 C 460.003906 487.027344 488.355469 457.71875 501.335938 420.941406 Z M 606.238281 123.738281 " fill-opacity="1" fill-rule="nonzero"/><path fill="#151515" d="M 661.023438 46.234375 C 625.4375 52.507812 592.90625 76.132812 579.441406 114.28125 L 474.523438 411.484375 C 464.292969 440.457031 441.980469 463.527344 413.339844 474.746094 L 119.554688 589.820312 C 44.164062 619.347656 29.585938 723.015625 93.855469 772.089844 L 344.445312 963.425781 C 356.511719 972.632812 366.449219 984.332031 373.578125 997.730469 C 380.710938 1011.125 384.863281 1025.898438 385.761719 1041.046875 L 404.4375 1355.5625 C 409.230469 1436.25 503.371094 1482.152344 570.082031 1436.214844 L 570.082031 1436.207031 L 829.878906 1257.265625 L 829.878906 1257.261719 C 842.386719 1248.640625 856.609375 1242.8125 871.566406 1240.175781 C 886.53125 1237.539062 901.886719 1238.152344 916.585938 1241.980469 L 1221.925781 1321.277344 C 1300.324219 1341.648438 1373.085938 1266.316406 1349.984375 1188.847656 L 1349.984375 1188.851562 L 1259.960938 886.914062 C 1255.621094 872.371094 1254.476562 857.070312 1256.589844 842.039062 C 1258.707031 827.011719 1264.046875 812.621094 1272.238281 799.847656 L 1272.238281 799.839844 L 1442.261719 534.335938 L 1442.257812 534.335938 C 1485.867188 466.242188 1436.710938 373.816406 1355.769531 371.847656 L 1040.335938 364.1875 C 1009.585938 363.4375 980.726562 349.390625 961.210938 325.664062 L 760.957031 82.261719 C 735.253906 51.019531 696.605469 39.945312 661.015625 46.21875 M 670.59375 100.539062 C 686.765625 97.6875 704.425781 103.273438 716.929688 118.46875 L 917.179688 361.863281 C 947.207031 398.371094 991.695312 420.011719 1038.945312 421.160156 L 1354.378906 428.820312 C 1393.878906 429.78125 1415.457031 470.492188 1394.242188 503.609375 L 1224.226562 769.113281 C 1198.722656 808.917969 1191.824219 857.902344 1205.320312 903.191406 L 1295.347656 1205.125 C 1306.558594 1242.726562 1274.507812 1276.046875 1236.253906 1266.117188 L 930.917969 1186.808594 C 885.160156 1174.917969 836.449219 1183.511719 797.519531 1210.332031 L 537.726562 1389.273438 C 505.179688 1411.691406 463.664062 1391.339844 461.332031 1352.175781 L 442.65625 1037.664062 C 439.855469 990.476562 416.609375 946.820312 379.035156 918.125 L 128.445312 726.789062 C 97.191406 702.921875 103.546875 657.292969 140.332031 642.875 L 434.117188 527.800781 C 478.136719 510.558594 512.53125 475.011719 528.269531 430.433594 L 633.183594 133.234375 C 639.734375 114.679688 654.417969 103.394531 670.589844 100.542969 " fill-opacity="1" fill-rule="nonzero"/><path fill="#151515" d="M 569.613281 846.78125 C 600.066406 841.410156 620.402344 812.378906 615.035156 781.9375 C 609.664062 751.488281 580.625 731.164062 550.171875 736.535156 C 519.71875 741.902344 499.386719 770.9375 504.753906 801.378906 C 510.121094 831.820312 539.160156 852.152344 569.613281 846.78125 Z M 569.613281 846.78125 " fill-opacity="1" fill-rule="nonzero"/><path fill="#151515" d="M 1020.730469 767.253906 C 1051.179688 761.890625 1071.519531 732.855469 1066.144531 702.410156 C 1060.78125 671.964844 1031.742188 651.640625 1001.285156 657.007812 C 970.835938 662.378906 950.5 691.410156 955.863281 721.855469 C 961.238281 752.300781 990.277344 772.625 1020.730469 767.253906 Z M 1020.730469 767.253906 " fill-opacity="1" fill-rule="nonzero"/><path fill="#151515" d="M 748.800781 834.308594 C 745.308594 835.652344 742.117188 837.675781 739.402344 840.257812 C 736.695312 842.835938 734.511719 845.925781 733.003906 849.347656 C 731.484375 852.773438 730.660156 856.457031 730.566406 860.195312 C 730.472656 863.9375 731.121094 867.664062 732.46875 871.152344 C 735.988281 880.25 741.261719 888.574219 747.996094 895.640625 C 754.730469 902.707031 762.789062 908.371094 771.71875 912.316406 L 771.726562 912.324219 C 780.640625 916.273438 790.246094 918.421875 800 918.660156 L 800.023438 918.660156 C 809.769531 918.886719 819.46875 917.199219 828.566406 913.6875 L 828.574219 913.6875 C 837.675781 910.171875 846 904.902344 853.058594 898.167969 L 853.066406 898.167969 L 853.066406 898.164062 C 860.128906 891.4375 865.792969 883.378906 869.742188 874.46875 C 873.703125 865.539062 875.855469 855.914062 876.082031 846.15625 C 876.261719 838.601562 873.433594 831.285156 868.214844 825.816406 C 862.992188 820.351562 855.816406 817.179688 848.257812 817.003906 C 844.515625 816.910156 840.796875 817.566406 837.304688 818.910156 C 833.8125 820.265625 830.621094 822.289062 827.914062 824.875 C 825.203125 827.453125 823.03125 830.546875 821.519531 833.972656 C 820.011719 837.390625 819.183594 841.082031 819.097656 844.824219 C 819.039062 847.082031 818.542969 849.3125 817.621094 851.378906 L 817.621094 851.382812 L 817.617188 851.398438 C 816.695312 853.472656 815.378906 855.34375 813.738281 856.914062 C 812.09375 858.480469 810.160156 859.707031 808.046875 860.519531 L 808.03125 860.523438 C 805.90625 861.34375 803.648438 861.734375 801.375 861.6875 C 799.109375 861.628906 796.871094 861.125 794.796875 860.203125 L 794.785156 860.203125 L 794.777344 860.195312 C 792.703125 859.277344 790.835938 857.96875 789.269531 856.328125 L 789.269531 856.320312 C 787.703125 854.675781 786.476562 852.746094 785.65625 850.621094 C 784.308594 847.132812 782.285156 843.941406 779.707031 841.230469 C 777.121094 838.523438 774.035156 836.34375 770.605469 834.835938 C 767.1875 833.316406 763.496094 832.492188 759.753906 832.398438 C 756.011719 832.304688 752.292969 832.953125 748.800781 834.308594 Z M 748.800781 834.308594 " fill-opacity="1" fill-rule="nonzero"/><g clip-path="url(#dd3be7ea1a)"><g clip-path="url(#f40a9d6159)"><g clip-path="url(#a6a3fe8f04)"><g clip-path="url(#875ea9fdd8)"><path fill="#1e1a1b" d="M 924.804688 974.53125 C 887.570312 995.917969 825.386719 983.605469 815.171875 937.175781 C 925.691406 858.71875 854.242188 760.953125 794.945312 841.441406 C 740.117188 791.167969 664.039062 875.878906 802.039062 936.601562 C 810.109375 989.386719 741.246094 1031.625 695.851562 1008.421875 C 693.699219 1007.074219 691.71875 1005.507812 689.910156 1003.730469 C 681.984375 997.578125 676.382812 1008.710938 683.527344 1014.027344 C 726.390625 1049.984375 802.882812 1016.011719 813.957031 963.59375 C 838.570312 997.921875 889.828125 1007.53125 927.246094 989.921875 C 938.015625 984.105469 962.054688 968.976562 951.269531 955.296875 C 941.183594 947.550781 939.558594 968.21875 924.804688 974.53125 Z M 726.035156 924.925781 C 726.101562 924.988281 726.164062 925.054688 726.222656 925.125 C 733.203125 933.496094 732.878906 936.167969 731.640625 937.679688 C 731.179688 938.25 730.589844 938.597656 729.867188 938.722656 C 727.867188 939.09375 725.347656 937.730469 723.953125 936.976562 C 723.851562 936.921875 723.753906 936.855469 723.660156 936.785156 C 669.101562 894.886719 596.550781 880.351562 501.863281 892.34375 C 501.585938 892.378906 501.3125 892.363281 501.039062 892.296875 C 500.765625 892.230469 500.515625 892.117188 500.289062 891.953125 C 500.058594 891.789062 499.871094 891.589844 499.71875 891.355469 C 499.566406 891.121094 499.464844 890.863281 499.410156 890.589844 C 499.355469 890.316406 499.355469 890.039062 499.40625 889.765625 C 499.457031 889.488281 499.554688 889.234375 499.703125 888.996094 C 499.855469 888.757812 500.042969 888.558594 500.269531 888.390625 C 500.496094 888.226562 500.742188 888.109375 501.015625 888.039062 C 536.460938 878.480469 579.5625 875.957031 619.253906 881.132812 C 650.976562 885.273438 695.25 896.234375 726.035156 924.925781 Z M 437.925781 971.160156 C 437.683594 971.289062 437.425781 971.367188 437.152344 971.398438 C 436.878906 971.429688 436.609375 971.410156 436.339844 971.34375 C 436.074219 971.273438 435.832031 971.15625 435.609375 970.996094 C 435.386719 970.832031 435.199219 970.636719 435.050781 970.40625 C 434.902344 970.171875 434.800781 969.921875 434.746094 969.652344 C 434.691406 969.382812 434.6875 969.113281 434.734375 968.84375 C 434.78125 968.570312 434.875 968.316406 435.015625 968.082031 C 435.160156 967.847656 435.339844 967.644531 435.558594 967.476562 C 500.882812 917.074219 634.535156 903.957031 705.382812 941 C 716.949219 947.835938 717.207031 950.222656 716.492188 952.082031 C 716.277344 952.609375 715.945312 953.042969 715.488281 953.382812 C 715.035156 953.726562 714.523438 953.925781 713.957031 953.984375 C 712.320312 954.285156 710.1875 953.933594 708.160156 953.519531 C 708.050781 953.496094 707.949219 953.46875 707.84375 953.429688 C 613.671875 919.09375 525.378906 924.894531 437.925781 971.160156 Z M 696.074219 975.519531 C 612.605469 967.78125 552.335938 981.824219 494.542969 1022.476562 C 494.320312 1022.636719 494.074219 1022.75 493.8125 1022.816406 C 493.546875 1022.882812 493.277344 1022.902344 493.007812 1022.871094 C 492.734375 1022.839844 492.480469 1022.757812 492.238281 1022.632812 C 491.996094 1022.503906 491.785156 1022.335938 491.605469 1022.128906 C 491.425781 1021.925781 491.289062 1021.691406 491.195312 1021.4375 C 491.105469 1021.179688 491.058594 1020.914062 491.066406 1020.640625 C 491.070312 1020.367188 491.125 1020.105469 491.230469 1019.851562 C 491.335938 1019.601562 491.480469 1019.375 491.667969 1019.175781 C 531.898438 976.148438 633.253906 948.46875 692.5 964.324219 C 701.496094 967.5 703.144531 969.609375 702.894531 971.8125 C 702.5625 974.796875 698.492188 975.28125 696.535156 975.511719 C 696.382812 975.53125 696.226562 975.53125 696.074219 975.519531 Z M 1081.277344 780.503906 C 1081.554688 780.472656 1081.828125 780.496094 1082.101562 780.570312 C 1082.371094 780.640625 1082.617188 780.761719 1082.84375 780.929688 C 1083.066406 781.097656 1083.253906 781.304688 1083.398438 781.542969 C 1083.542969 781.78125 1083.640625 782.039062 1083.691406 782.3125 C 1083.738281 782.589844 1083.734375 782.867188 1083.675781 783.140625 C 1083.617188 783.414062 1083.511719 783.667969 1083.355469 783.902344 C 1083.203125 784.136719 1083.011719 784.332031 1082.78125 784.492188 C 1082.550781 784.652344 1082.296875 784.765625 1082.027344 784.828125 C 989.328125 807.5625 926.804688 847.132812 890.882812 905.796875 C 890.820312 905.898438 890.75 905.992188 890.675781 906.078125 C 889.644531 907.28125 887.777344 909.457031 885.78125 909.828125 C 885.0625 909.972656 884.386719 909.859375 883.75 909.488281 C 882.054688 908.523438 880.792969 906.144531 884.308594 895.832031 C 884.339844 895.742188 884.375 895.65625 884.414062 895.574219 C 902.871094 857.757812 940.28125 831.660156 968.414062 816.429688 C 1003.617188 797.371094 1044.757812 784.289062 1081.277344 780.503906 Z M 1172.375 833.769531 C 1172.320312 834.039062 1172.21875 834.289062 1172.066406 834.519531 C 1171.917969 834.75 1171.730469 834.949219 1171.507812 835.109375 C 1171.28125 835.269531 1171.035156 835.382812 1170.769531 835.453125 C 1170.503906 835.519531 1170.230469 835.539062 1169.957031 835.503906 C 1071.730469 823.648438 987.226562 849.867188 911.613281 915.671875 C 911.53125 915.742188 911.445312 915.808594 911.351562 915.867188 C 909.609375 916.980469 907.742188 918.074219 906.105469 918.378906 C 905.554688 918.527344 905.007812 918.523438 904.460938 918.367188 C 903.914062 918.210938 903.445312 917.925781 903.058594 917.511719 C 901.722656 916.027344 901.109375 913.710938 909.382812 903.269531 C 962.328125 843.214844 1091.804688 807.5625 1170.851562 831.214844 C 1171.117188 831.292969 1171.355469 831.417969 1171.574219 831.585938 C 1171.792969 831.757812 1171.972656 831.957031 1172.113281 832.195312 C 1172.253906 832.433594 1172.347656 832.6875 1172.390625 832.957031 C 1172.4375 833.230469 1172.429688 833.5 1172.375 833.769531 Z M 1136.988281 899.585938 C 1137.238281 899.707031 1137.453125 899.863281 1137.640625 900.0625 C 1137.828125 900.261719 1137.972656 900.488281 1138.078125 900.738281 C 1138.179688 900.992188 1138.234375 901.253906 1138.242188 901.527344 C 1138.246094 901.800781 1138.203125 902.066406 1138.109375 902.324219 C 1138.015625 902.578125 1137.878906 902.8125 1137.699219 903.015625 C 1137.519531 903.222656 1137.308594 903.390625 1137.066406 903.515625 C 1136.824219 903.644531 1136.566406 903.722656 1136.292969 903.753906 C 1136.023438 903.785156 1135.753906 903.765625 1135.492188 903.699219 C 1066.964844 886.449219 1005.664062 894.941406 930.515625 932.070312 C 930.375 932.140625 930.230469 932.195312 930.082031 932.234375 C 928.171875 932.722656 924.199219 933.730469 922.816406 931.058594 C 921.796875 929.089844 922.578125 926.53125 929.703125 920.449219 C 979.46875 884.308594 1084.015625 873.835938 1136.988281 899.585938 Z M 1136.988281 899.585938 " fill-opacity="1" fill-rule="nonzero"/></g></g></g></g><g clip-path="url(#16f9d71f45)"><g transform="matrix(1, 0, 0, 1, 946, 13)"><g clip-path="url(#38ec6a5ac0)"><g clip-path="url(#0b8213cc71)"><path fill="#151515" d="M 237.675781 0.996094 C 322.828125 0.996094 308.636719 261.382812 308.636719 346.535156 C 308.636719 431.683594 285.804688 374.300781 200.65625 374.300781 C 115.503906 374.300781 0.117188 431.683594 0.117188 346.535156 C 0.117188 261.382812 152.527344 0.996094 237.675781 0.996094 Z M 237.675781 0.996094 " fill-opacity="1" fill-rule="nonzero"/></g><path fill="#ffaff3" d="M 185.214844 136.453125 C 227.179688 136.453125 220.183594 264.769531 220.183594 306.730469 C 220.183594 348.691406 208.933594 320.414062 166.972656 320.414062 C 125.011719 320.414062 68.148438 348.691406 68.148438 306.730469 C 68.148438 264.769531 143.253906 136.453125 185.214844 136.453125 Z M 185.214844 136.453125 " fill-opacity="1" fill-rule="nonzero"/></g></g></g><g clip-path="url(#8ecb4251e6)"><g clip-path="url(#621e93453b)"><g clip-path="url(#66714850ad)"><path fill="#151515" d="M 147.175781 190.332031 C 67.214844 219.601562 170.046875 459.246094 199.316406 539.207031 C 228.585938 619.167969 230.300781 557.433594 310.261719 528.164062 C 390.222656 498.894531 518.304688 513.121094 489.035156 433.15625 C 459.765625 353.195312 227.136719 161.0625 147.175781 190.332031 Z M 147.175781 190.332031 " fill-opacity="1" fill-rule="nonzero"/></g></g></g><g clip-path="url(#ad17df9c76)"><g clip-path="url(#e6d57a6ea1)"><g clip-path="url(#1a356c220b)"><path fill="#ffaff3" d="M 243 299.5 C 203.597656 313.925781 254.273438 432.019531 268.695312 471.425781 C 283.121094 510.828125 283.964844 480.40625 323.371094 465.984375 C 362.773438 451.558594 425.890625 458.570312 411.464844 419.164062 C 397.042969 379.757812 282.40625 285.078125 243 299.5 Z M 243 299.5 " fill-opacity="1" fill-rule="nonzero"/></g></g></g><g clip-path="url(#ae86d30279)"><g clip-path="url(#1d4fb4ff78)"><g transform="matrix(1, 0, 0, 1, 558, 450)"><g clip-path="url(#194fdcc350)"><g clip-path="url(#3d268acd28)"><g clip-path="url(#d2861715d2)"><path fill="#ffaff3" d="M 136.496094 0.207031 L 183.457031 94.691406 L 47.265625 162.386719 L 0.300781 67.902344 Z M 136.496094 0.207031 " fill-opacity="1" fill-rule="nonzero"/></g></g></g></g></g></g><g clip-path="url(#b10602d8cb)"><g clip-path="url(#a0f74f69db)"><g transform="matrix(1, 0, 0, 1, 267, 412)"><g clip-path="url(#86a2b03a49)"><g clip-path="url(#f98395807f)"><g clip-path="url(#bd247c2539)"><path fill="#ffaff3" d="M 0.132812 57.851562 L 141.953125 0.691406 L 157.738281 39.855469 L 15.917969 97.015625 Z M 0.132812 57.851562 " fill-opacity="1" fill-rule="nonzero"/></g></g></g></g></g></g><g clip-path="url(#678a663a32)"><g transform="matrix(1, 0, 0, 1, 1014, 324)"><g clip-path="url(#bedc82a715)"><g clip-path="url(#3513b48fe4)"><path fill="#ffaff3" d="M 0.09375 0.738281 L 152.304688 0.738281 L 152.304688 30.328125 L 0.09375 30.328125 Z M 0.09375 0.738281 " fill-opacity="1" fill-rule="nonzero"/></g></g></g></g></svg>